<svg width="20" height="21" viewBox="0 0 20 21" fill="none" xmlns="http://www.w3.org/2000/svg">
<path d="M16.6356 3.18751H15.8231V1.83334H14.4689V3.18751H5.53141V1.83334H4.17725V3.18751H3.36475C2.24471 3.18751 1.3335 4.09873 1.3335 5.21876V17.1354C1.3335 18.2555 2.24471 19.1667 3.36475 19.1667H12.9965L18.6668 13.2782V5.21876C18.6668 4.09873 17.7556 3.18751 16.6356 3.18751ZM13.3856 16.8103V14.3594C13.3856 13.986 13.6893 13.6823 14.0627 13.6823H16.3978L13.3856 16.8103ZM17.3127 12.3281H14.0627C12.9426 12.3281 12.0314 13.2394 12.0314 14.3594V17.8125H3.36475C2.9914 17.8125 2.68766 17.5088 2.68766 17.1354V8.19793H17.3127V12.3281ZM17.3127 6.84376H2.68766V5.21876C2.68766 4.84542 2.9914 4.54168 3.36475 4.54168H4.17725V5.89584H5.53141V4.54168H14.4689V5.89584H15.8231V4.54168H16.6356C17.0089 4.54168 17.3127 4.84542 17.3127 5.21876V6.84376Z" fill="#A8A8A8"/>
</svg>
