<svg width="130" height="130" viewBox="0 0 130 130" fill="none" xmlns="http://www.w3.org/2000/svg">
<g clip-path="url(#clip0_714_11999)">
<mask id="mask0_714_11999" style="mask-type:luminance" maskUnits="userSpaceOnUse" x="0" y="0" width="130" height="130">
<path d="M130 0H0V130H130V0Z" fill="white"/>
</mask>
<g mask="url(#mask0_714_11999)">
<mask id="mask1_714_11999" style="mask-type:luminance" maskUnits="userSpaceOnUse" x="0" y="0" width="130" height="130">
<path d="M0 1.52588e-05H130V130H0V1.52588e-05Z" fill="white"/>
</mask>
<g mask="url(#mask1_714_11999)">
<path fill-rule="evenodd" clip-rule="evenodd" d="M14.896 117.305C14.896 124.316 20.58 130 27.5913 130H102.411C109.423 130 115.106 124.316 115.106 117.305V22.6992C115.106 15.6877 109.423 10.0039 102.411 10.0039H84.9749C82.1703 10.0039 79.8967 12.2775 79.8967 15.082C79.8967 17.8866 82.1703 20.1601 84.9749 20.1601H102.411C103.814 20.1601 104.95 21.2968 104.95 22.6992V117.305C104.95 118.707 103.813 119.844 102.411 119.844H27.5913C26.1892 119.844 25.0522 118.707 25.0522 117.305V22.6992C25.0522 21.2969 26.189 20.1601 27.5913 20.1601H45.0263C47.8309 20.1601 50.1044 17.8866 50.1044 15.082C50.1044 12.2775 47.8309 10.0039 45.0263 10.0039H27.5913C20.5801 10.0039 14.896 15.6876 14.896 22.6992V117.305Z" fill="#A58C6D"/>
<path fill-rule="evenodd" clip-rule="evenodd" d="M39.9473 25.0859C39.9473 27.8905 42.2208 30.1641 45.0254 30.1641H84.975C87.7796 30.1641 90.0531 27.8905 90.0531 25.0859V5.07813C90.0531 2.27356 87.7796 3.8147e-06 84.975 3.8147e-06H45.0254C42.2208 3.8147e-06 39.9473 2.27356 39.9473 5.07813V25.0859ZM50.1035 20.0078V10.1563H79.8969V20.0078H50.1035Z" fill="#A58C6D"/>
</g>
<mask id="mask2_714_11999" style="mask-type:luminance" maskUnits="userSpaceOnUse" x="0" y="0" width="130" height="130">
<path d="M0 1.52588e-05H130V130H0V1.52588e-05Z" fill="white"/>
</mask>
<g mask="url(#mask2_714_11999)">
<path fill-rule="evenodd" clip-rule="evenodd" d="M54.6971 89.5214C56.6802 91.5046 59.8955 91.5046 61.8787 89.5215L88.5647 62.8357C90.5478 60.8525 90.5479 57.6372 88.5647 55.6541C86.5816 53.671 83.3663 53.6709 81.3832 55.6541L58.2879 78.7491L48.6169 69.0781C46.6338 67.095 43.4185 67.095 41.4353 69.0781C39.4522 71.0612 39.4522 74.2765 41.4353 76.2597L54.6971 89.5214Z" fill="#A58C6D"/>
</g>
</g>
</g>
<defs>
<clipPath id="clip0_714_11999">
<rect width="130" height="130" fill="white"/>
</clipPath>
</defs>
</svg>
