<svg width="25" height="25" viewBox="0 0 25 25" fill="none" xmlns="http://www.w3.org/2000/svg">
<g clip-path="url(#clip0_253_25)">
<path d="M24.8569 20.3833L20.7544 16.2807C20.5639 16.0903 20.2549 16.0903 20.0639 16.2807L19.852 16.4927C19.0464 15.5542 18.5913 14.3408 18.5913 13.0976V10.3227C18.5913 9.6533 18.4614 9.00046 18.2051 8.38181L17.6899 7.13914L16.8799 5.18406C16.8677 5.13035 16.8467 5.08054 16.8183 5.03513L16.0083 3.07957L15.1499 1.0073C14.8432 0.266578 14.0537 -0.138695 13.2729 0.0434334C12.9761 0.112769 12.7114 0.259254 12.5 0.46775C12.289 0.259742 12.0239 0.112769 11.727 0.0434334C10.9463 -0.138207 10.1567 0.267066 9.85008 1.0073L6.7949 8.38181C6.53856 9.00046 6.40867 9.6533 6.40867 10.3227V13.0976C6.40867 14.3408 5.9536 15.5542 5.14793 16.4927L4.93602 16.2807C4.74559 16.0903 4.43651 16.0903 4.24559 16.2807L0.143048 20.3833C0.0331849 20.4931 -0.0175964 20.6484 0.00535285 20.8017C0.0287904 20.9551 0.123517 21.0884 0.260724 21.1606L7.43846 24.9365C7.51024 24.9741 7.58836 24.9927 7.66551 24.9927C7.79197 24.9927 7.91697 24.9433 8.01072 24.8496L10.4126 22.4477C10.5039 22.3559 10.5556 22.2319 10.5556 22.1025C10.5556 21.9731 10.5044 21.8491 10.4126 21.7573L10.2554 21.6001C11.0171 21.0434 11.6567 20.3281 12.123 19.5044C12.2661 19.2519 12.3916 18.9912 12.5 18.7236C12.6084 18.9912 12.7339 19.2519 12.8769 19.5044C13.3432 20.3281 13.9829 21.0434 14.7446 21.6001L14.5874 21.7573C14.4961 21.8491 14.4443 21.9731 14.4443 22.1025C14.4443 22.2319 14.4956 22.3559 14.5874 22.4477L16.9892 24.8496C17.083 24.9433 17.208 24.9927 17.3345 24.9927C17.4116 24.9927 17.4897 24.9741 17.5615 24.9365L24.7392 21.1606C24.8764 21.0884 24.9712 20.9551 24.9946 20.8017C25.0176 20.6484 24.9668 20.4931 24.8569 20.3833ZM7.57469 23.9048L1.30174 20.605L4.5908 17.3159L9.37742 22.1025L7.57518 23.9048H7.57469ZM12.0117 16.2221C12.0117 18.0864 11.0791 19.8467 9.55516 20.8999L5.83983 17.1845C6.82664 16.0625 7.38475 14.5981 7.38475 13.0971V10.3222C7.38475 9.78171 7.48973 9.25437 7.69676 8.75486L10.7519 1.38084C10.875 1.08347 11.1919 0.920875 11.5054 0.993629C11.6782 1.03367 11.8237 1.13962 11.916 1.29099C12.0083 1.44236 12.0346 1.62058 11.9912 1.79246L10.8564 6.25535C10.4458 6.43162 10.1172 6.78416 9.98631 7.24021L8.89012 11.0649C8.8159 11.3242 8.9658 11.5942 9.22459 11.6684C9.48387 11.7427 9.75389 11.5927 9.82811 11.334L10.9243 7.50925C11.0014 7.2407 11.2671 7.07126 11.5429 7.11423C11.8144 7.15671 12.0112 7.38718 12.0112 7.6616V16.2217L12.0117 16.2221ZM12.5 6.53904C12.3276 6.37937 12.1167 6.25877 11.8804 6.19138L12.5 3.75388L13.1196 6.19138C12.8828 6.25877 12.6723 6.37937 12.5 6.53904ZM12.9883 16.2221V7.66257C12.9883 7.38767 13.185 7.15769 13.4565 7.11521C13.7319 7.07175 13.998 7.24168 14.0752 7.51023L15.1714 11.3349C15.2456 11.5942 15.5161 11.7441 15.7749 11.6694C16.0342 11.5952 16.1841 11.3247 16.1094 11.0659L15.0132 7.24119C14.8823 6.78513 14.5537 6.43259 14.143 6.25632L13.0083 1.79343C12.9643 1.62156 12.9912 1.44334 13.0835 1.29197C13.1758 1.1406 13.3213 1.03464 13.4941 0.994605C13.8076 0.921363 14.1245 1.08445 14.2475 1.38181L15.1059 3.45408L16.7876 7.51365L17.3027 8.75632C17.5097 9.25584 17.6147 9.78318 17.6147 10.3237V13.0986C17.6147 14.5996 18.1728 16.0639 19.1597 17.186L15.4443 20.9013C13.9209 19.8481 12.9883 18.0879 12.9883 16.2236V16.2221ZM17.4253 23.9048L15.623 22.1025L20.4096 17.3159L23.6987 20.605L17.4258 23.9048H17.4253Z" fill="black"/>
</g>
<defs>
<clipPath id="clip0_253_25">
<rect width="25" height="24.9927" fill="white"/>
</clipPath>
</defs>
</svg>
