<svg width="100" height="58" viewBox="0 0 100 58" fill="none" xmlns="http://www.w3.org/2000/svg">
<path d="M91.1111 0H22.2222C17.3333 0 13.3333 4 13.3333 8.88889V12.2222C13.3333 13.4444 14.3333 14.4444 15.5556 14.4444C16.7778 14.4444 17.7778 13.4444 17.7778 12.2222V8.88889C17.7778 8.44444 17.8889 8 18 7.55555L42.8889 28.8889L18 50.2222C17.8889 49.7778 17.7778 49.3333 17.7778 48.8889V45.5556C17.7778 44.3333 16.7778 43.3333 15.5556 43.3333C14.3333 43.3333 13.3333 44.3333 13.3333 45.5556V48.8889C13.3333 53.7778 17.3333 57.7778 22.2222 57.7778H91.1111C96 57.7778 100 53.7778 100 48.8889V8.88889C100 4 96 0 91.1111 0ZM21.3333 4.55556C21.5556 4.44445 21.8889 4.44444 22.2222 4.44444H91.1111C91.4445 4.44444 91.7778 4.44445 92 4.55556L58.1111 33.5556C57.2222 34.2222 56.1111 34.2222 55.2222 33.5556L21.3333 4.55556ZM91.1111 53.3333H22.2222C21.8889 53.3333 21.5556 53.3333 21.3333 53.2222L46.3333 31.7778L52.3333 37C53.5556 38.1111 55.1111 38.6667 56.6667 38.6667C58.2222 38.6667 59.7778 38.1111 61 37L67 31.7778L92 53.2222C91.7778 53.3333 91.4445 53.3333 91.1111 53.3333ZM95.5556 48.8889C95.5556 49.3333 95.4445 49.7778 95.3333 50.2222L70.4445 28.8889L95.3333 7.55555C95.4445 8 95.5556 8.44444 95.5556 8.88889V48.8889ZM6.66667 23.3333C6.66667 22.1111 7.66667 21.1111 8.88889 21.1111H22.2222C23.4444 21.1111 24.4444 22.1111 24.4444 23.3333C24.4444 24.5556 23.4444 25.5556 22.2222 25.5556H8.88889C7.66667 25.5556 6.66667 24.5556 6.66667 23.3333ZM22.2222 36.6667H2.22222C1 36.6667 0 35.6667 0 34.4444C0 33.2222 1 32.2222 2.22222 32.2222H22.2222C23.4444 32.2222 24.4444 33.2222 24.4444 34.4444C24.4444 35.6667 23.4444 36.6667 22.2222 36.6667Z" fill="#A58C6D"/>
</svg>
