<svg width="16" height="16" viewBox="0 0 16 16" fill="none" xmlns="http://www.w3.org/2000/svg">
<path d="M13.085 6.185L4.5 1.225C4.2546 1.07981 3.97513 1.00218 3.69 1C3.24178 1 2.81193 1.17805 2.49499 1.49499C2.17805 1.81193 2 2.24178 2 2.69V13.335C2.00006 13.6324 2.07979 13.9244 2.23091 14.1806C2.38203 14.4368 2.59902 14.6478 2.85932 14.7918C3.11961 14.9357 3.41371 15.0073 3.71104 14.999C4.00836 14.9908 4.29806 14.9031 4.55 14.745L13.145 9.315C13.4122 9.14775 13.6316 8.91411 13.7817 8.63687C13.9318 8.35962 14.0075 8.04822 14.0015 7.73301C13.9954 7.41779 13.9078 7.10952 13.7472 6.83823C13.5866 6.56694 13.3585 6.34189 13.085 6.185Z" fill="white"/>
</svg>
