<svg width="27" height="25" viewBox="0 0 27 25" fill="none" xmlns="http://www.w3.org/2000/svg">
<path d="M13.0438 0C5.85341 0 0 4.78055 0 10.6557C0 15.9178 4.64142 20.3266 10.9079 21.1647C11.3329 21.2549 11.9112 21.4473 12.0579 21.8103C12.1883 22.1397 12.1438 22.6484 12.0992 22.9919L11.9209 24.1071C11.872 24.4365 11.6601 25.4039 13.0612 24.8126C14.4645 24.2234 20.5788 20.3516 23.318 17.183C25.1919 15.1178 26.0876 13.0014 26.0876 10.6557C26.0876 4.78055 20.2342 0 13.0438 0ZM7.93824 14.1493H5.3447C4.96969 14.1493 4.6599 13.8373 4.6599 13.4612V8.2426C4.6599 7.86541 4.96969 7.55345 5.3447 7.55345C5.72297 7.55345 6.0295 7.86541 6.0295 8.2426V12.7721H7.93824C8.31651 12.7721 8.62195 13.0818 8.62195 13.4612C8.62195 13.8373 8.31542 14.1493 7.93824 14.1493ZM10.6187 13.4612C10.6187 13.8373 10.3122 14.1493 9.93285 14.1493C9.55784 14.1493 9.25132 13.8373 9.25132 13.4612V8.2426C9.25132 7.86541 9.55784 7.55345 9.93611 7.55345C10.3122 7.55345 10.6187 7.86541 10.6187 8.2426V13.4612ZM16.8591 13.4612C16.8591 13.7569 16.67 14.0188 16.3895 14.1134C16.32 14.1362 16.245 14.1471 16.1732 14.1471C15.9439 14.1471 15.7482 14.0482 15.6189 13.8732L12.9634 10.2448V13.4601C12.9634 13.8362 12.6601 14.1482 12.2775 14.1482C11.9014 14.1482 11.597 13.8362 11.597 13.4601V8.2426C11.597 7.94694 11.7851 7.68497 12.0644 7.59149C12.1296 7.56649 12.2123 7.55562 12.2753 7.55562C12.4873 7.55562 12.6829 7.66975 12.8134 7.83389L15.4895 11.4764V8.2426C15.4895 7.86541 15.796 7.55345 16.1743 7.55345C16.5493 7.55345 16.8591 7.86541 16.8591 8.2426V13.4612ZM21.0494 10.1622C21.4288 10.1622 21.7342 10.4742 21.7342 10.8524C21.7342 11.2296 21.4288 11.5416 21.0494 11.5416H19.1418V12.7721H21.0494C21.4288 12.7721 21.7342 13.0818 21.7342 13.4612C21.7342 13.8373 21.4288 14.1493 21.0494 14.1493H18.4559C18.0809 14.1493 17.7744 13.8373 17.7744 13.4612V8.2426C17.7744 7.86541 18.0809 7.55345 18.4592 7.55345H21.0527C21.4288 7.55345 21.7342 7.86541 21.7342 8.2426C21.7342 8.62413 21.4288 8.93174 21.0494 8.93174H19.1418V10.1622H21.0494Z" fill="#4CAF50"/>
</svg>
