<svg width="17" height="17" viewBox="0 0 17 17" fill="none" xmlns="http://www.w3.org/2000/svg">
<path d="M16.2132 0.182853C16.0496 0.0408251 15.8322 -0.0230696 15.6175 0.00748312L5.14878 1.50301C4.78036 1.55565 4.50675 1.87116 4.50675 2.24331V5.23439V11.0105C4.06383 10.7524 3.54966 10.6039 3.00114 10.6039C1.34633 10.6039 0 11.9502 0 13.605C0 15.2598 1.3463 16.6061 3.0011 16.6061C4.65591 16.6061 6.00224 15.2598 6.00224 13.605V5.88294L14.9755 4.60106V9.51492C14.5326 9.25687 14.0184 9.10829 13.4699 9.10829C11.8151 9.10829 10.4687 10.4546 10.4687 12.1094C10.4687 13.7642 11.8151 15.1106 13.4699 15.1106C15.1247 15.1106 16.471 13.7642 16.471 12.1094V3.73884V0.747753C16.471 0.530966 16.377 0.324881 16.2132 0.182853Z" fill="white"/>
</svg>
