<svg width="20" height="20" viewBox="0 0 20 20" fill="none" xmlns="http://www.w3.org/2000/svg">
<g clip-path="url(#clip0_623_2)">
<path d="M5.32592 2.21311e-06H3.98949C3.63902 -0.000449207 3.29189 0.0681628 2.96795 0.201918C2.64401 0.335672 2.34959 0.531948 2.10153 0.77953C1.85347 1.02711 1.65663 1.32115 1.52225 1.64483C1.38787 1.96852 1.31858 2.31551 1.31836 2.66598V17.3323C1.31858 17.6829 1.38785 18.0299 1.52221 18.3537C1.65657 18.6775 1.85339 18.9716 2.10143 19.2194C2.34947 19.4671 2.64387 19.6635 2.96782 19.7975C3.29178 19.9314 3.63894 20.0002 3.98949 20H5.32592C5.67647 20.0002 6.02363 19.9314 6.34759 19.7975C6.67154 19.6635 6.96594 19.4671 7.21398 19.2194C7.46202 18.9716 7.65884 18.6775 7.7932 18.3537C7.92755 18.0299 7.99682 17.6829 7.99705 17.3323V2.66598C7.99614 1.95831 7.71426 1.27995 7.21338 0.780034C6.71249 0.280115 6.03359 -0.000453763 5.32592 2.21311e-06ZM16.0104 2.21311e-06H14.674C13.9663 -0.000453763 13.2875 0.280115 12.7866 0.780034C12.2857 1.27995 12.0038 1.95831 12.0029 2.66598V17.3323C12.0031 17.6829 12.0724 18.0299 12.2067 18.3537C12.3411 18.6775 12.5379 18.9716 12.786 19.2194C13.034 19.4671 13.3284 19.6635 13.6524 19.7975C13.9763 19.9314 14.3235 20.0002 14.674 20H16.0104C16.361 20.0002 16.7082 19.9314 17.0321 19.7975C17.3561 19.6635 17.6505 19.4671 17.8985 19.2194C18.1466 18.9716 18.3434 18.6775 18.4777 18.3537C18.6121 18.0299 18.6814 17.6829 18.6816 17.3323V2.66598C18.6814 2.31551 18.6121 1.96852 18.4777 1.64483C18.3433 1.32115 18.1465 1.02711 17.8984 0.77953C17.6503 0.531948 17.3559 0.335672 17.032 0.201918C16.708 0.0681628 16.3609 -0.000449207 16.0104 2.21311e-06Z" fill="white"/>
</g>
<defs>
<clipPath id="clip0_623_2">
<rect width="20" height="20" fill="white"/>
</clipPath>
</defs>
</svg>
