<svg width="130" height="130" viewBox="0 0 130 130" fill="none" xmlns="http://www.w3.org/2000/svg">
<g clip-path="url(#clip0_714_9817)">
<path d="M126.191 30.9766H106.747L106.641 22.8259C106.627 10.2372 96.381 0 83.7891 0C71.1887 0 60.9375 10.2512 60.9375 22.8516C60.9375 22.8681 60.9375 22.8846 60.9378 22.9011L61.0426 30.9766H41.6406C39.5373 30.9766 37.832 32.6818 37.832 34.7852V61.4453H3.80859C1.70523 61.4453 0 63.1505 0 65.2539V118.574C0 124.874 5.12561 130 11.4258 130H72.8711H80.4883H118.574C124.874 130 130 124.874 130 118.574V34.7852C130 32.6818 128.295 30.9766 126.191 30.9766ZM83.7891 7.61719C92.1893 7.61719 99.0234 14.4513 99.0234 22.8516C99.0234 22.8681 99.0234 22.8846 99.0237 22.9011L99.1288 30.9766H68.6606L68.5547 22.8285C68.5671 14.4386 75.3964 7.61719 83.7891 7.61719ZM84.2969 118.574C84.2969 120.674 82.5883 122.383 80.4883 122.383H72.8711H11.4258C9.32572 122.383 7.61719 120.674 7.61719 118.574V69.0625H84.2969V118.574ZM122.383 118.574C122.383 120.674 120.674 122.383 118.574 122.383H91.259C91.6817 121.191 91.9141 119.909 91.9141 118.574V65.2539C91.9141 63.1505 90.2088 61.4453 88.1055 61.4453H45.4492V38.5938H61.1416L61.1917 42.4519C61.2186 44.5382 62.9185 46.2109 64.999 46.2109C65.0157 46.2109 65.0325 46.2109 65.0495 46.2107C67.1529 46.1833 68.8358 44.4562 68.8083 42.3528L68.7593 38.5938H99.2276L99.2776 42.4519C99.3045 44.5382 101.004 46.2109 103.085 46.2109C103.102 46.2109 103.118 46.2109 103.135 46.2107C105.239 46.1833 106.922 44.4562 106.894 42.3528L106.845 38.5938H122.383V118.574Z" fill="#A58C6D"/>
<path d="M65 76.6797C62.8966 76.6797 61.1914 78.3849 61.1914 80.4883V84.2969C61.1914 92.6971 54.3573 99.5312 45.957 99.5312C37.5568 99.5312 30.7227 92.6971 30.7227 84.2969V80.4883C30.7227 78.3849 29.0174 76.6797 26.9141 76.6797C24.8107 76.6797 23.1055 78.3849 23.1055 80.4883V84.2969C23.1055 96.8972 33.3567 107.148 45.957 107.148C58.5574 107.148 68.8086 96.8972 68.8086 84.2969V80.4883C68.8086 78.3849 67.1034 76.6797 65 76.6797Z" fill="#A58C6D"/>
</g>
<defs>
<clipPath id="clip0_714_9817">
<rect width="130" height="130" fill="white"/>
</clipPath>
</defs>
</svg>
