<svg width="80" height="80" viewBox="0 0 80 80" fill="none" xmlns="http://www.w3.org/2000/svg">
<g clip-path="url(#clip0_838_1947)">
<path d="M76.8689 28.5107H58.3753L44.1056 2.85916C44.0967 2.84322 44.0863 2.82869 44.0769 2.81307C43.2666 1.39932 41.7433 0.443848 40 0.443848C38.2595 0.443848 36.7381 1.39635 35.9269 2.80666C35.9161 2.82432 35.9042 2.84088 35.8941 2.85916L21.6247 28.5107H3.13109C1.40453 28.5107 0 29.9154 0 31.6418V76.4248C0 78.1512 1.40453 79.5559 3.13109 79.5559H47.4188C48.2833 79.5559 48.9844 78.8549 48.9844 77.9902C48.9844 77.1256 48.2834 76.4246 47.4188 76.4246H3.13109V31.6418H76.8689V76.4248H47.0177C46.1531 76.4248 45.452 77.1257 45.452 77.9904C45.452 78.8551 46.153 79.556 47.0177 79.556H76.8689C78.5955 79.556 80 78.1513 80 76.4249V31.6418C80 29.9154 78.5955 28.5107 76.8689 28.5107ZM40 3.5751C40.8631 3.5751 41.5656 4.27744 41.5656 5.14072C41.5656 6.004 40.8631 6.70619 40 6.70619C39.1369 6.70619 38.4344 6.00385 38.4344 5.14057C38.4344 4.27729 39.1369 3.5751 40 3.5751ZM36.4808 8.24588C37.342 9.22072 38.6 9.83728 40 9.83728C41.4 9.83728 42.658 9.22088 43.5191 8.24603L54.7922 28.5107H25.2078L36.4808 8.24588Z" fill="#A58C6D"/>
<path d="M46.3957 36.5403C45.5312 36.5403 44.8301 37.2412 44.8301 38.1059V50.099C44.8301 50.8615 45.3795 51.5129 46.1309 51.642C46.2435 51.6614 46.3262 51.6756 47.6549 51.6756C48.2984 51.6756 49.2345 51.6722 50.6074 51.6647C51.4721 51.6598 52.169 50.955 52.1643 50.0903C52.1595 49.2286 51.4595 48.5336 50.5988 48.5336C50.5959 48.5336 50.5929 48.5336 50.5899 48.5336C49.7868 48.5381 48.7787 48.5422 47.961 48.5433V38.1061C47.9613 37.2411 47.2604 36.5403 46.3957 36.5403Z" fill="#A58C6D"/>
<path d="M55.2246 50.0392C55.2507 50.417 55.4113 50.7742 55.6818 51.0425C55.9752 51.3336 56.3717 51.497 56.7848 51.497H56.7907C56.8904 51.4967 59.2437 51.4876 60.1842 51.4712C63.7451 51.409 66.3296 48.312 66.3296 44.1075C66.3296 39.6875 63.8102 36.7178 60.0602 36.7178H56.7612C56.3456 36.7178 55.9468 36.8831 55.6531 37.1773C55.3595 37.4715 55.1949 37.8704 55.1956 38.2862V38.2951V38.2954C55.1956 38.2954 55.206 49.9431 55.2246 50.0392ZM60.0602 39.8489C62.9723 39.8489 63.1985 43.1084 63.1985 44.1075C63.1985 46.9946 61.6571 48.3139 60.1295 48.3406C59.7174 48.3478 59.0063 48.3537 58.3451 48.3579C58.3407 46.985 58.332 41.2756 58.3295 39.849L60.0602 39.8489Z" fill="#A58C6D"/>
<path d="M19.4188 48.5435C18.2438 48.5435 17.114 48.0707 16.3961 47.2785C15.8154 46.6379 14.8254 46.5891 14.1847 47.1697C13.544 47.7504 13.4954 48.7404 14.0758 49.3811C15.3968 50.8386 17.3443 51.6747 19.4188 51.6747C21.9799 51.6747 24.1311 50.038 24.5338 47.7829C24.8372 46.0833 24.069 43.8643 21.0029 42.7333C19.5396 42.1935 18.1766 41.606 17.7465 41.4179C17.4524 41.176 17.4625 40.8419 17.4827 40.7021C17.5113 40.5027 17.6571 40.0147 18.3918 39.7935C20.0469 39.2944 21.5886 40.508 21.6349 40.5452C22.2963 41.0938 23.278 41.0063 23.8324 40.3471C24.3888 39.6852 24.3032 38.6977 23.6413 38.1413C23.5268 38.0452 20.8015 35.7976 17.4885 36.7954C15.8069 37.3019 14.6171 38.6283 14.3832 40.2571C14.1636 41.7868 14.8269 43.2583 16.114 44.0976C16.183 44.1427 16.2557 44.1822 16.331 44.2158C16.4005 44.2469 18.0554 44.9835 19.919 45.671C20.3175 45.818 21.606 46.3651 21.4511 47.2326C21.3365 47.8768 20.5446 48.5435 19.4188 48.5435Z" fill="#A58C6D"/>
<path d="M41.2944 44.1075C41.2944 39.935 37.8999 36.5403 33.7273 36.5403C29.5546 36.5403 26.1599 39.935 26.1599 44.1075C26.1599 48.28 29.5546 51.6747 33.7273 51.6747C37.8999 51.6747 41.2944 48.28 41.2944 44.1075ZM33.7273 48.5436C31.2812 48.5436 29.2912 46.5536 29.2912 44.1075C29.2912 41.6614 31.2813 39.6714 33.7273 39.6714C36.1732 39.6714 38.1632 41.6614 38.1632 44.1075C38.1633 46.5534 36.1733 48.5436 33.7273 48.5436Z" fill="#A58C6D"/>
<path d="M48.4293 66.2085V57.9577C48.4293 57.093 47.7284 56.3921 46.8637 56.3921C45.9992 56.3921 45.2981 57.093 45.2981 57.9577V66.2086C45.2981 66.7651 45.1388 67.4838 43.8971 68.1091C43.5146 68.3018 43.0985 68.3955 42.6256 68.3955C42.6238 68.3955 42.6221 68.3955 42.6207 68.3955C42.1037 68.3949 41.6551 68.2683 41.249 68.009C40.286 67.3938 40.0885 66.8479 40.0885 66.2174V57.9577C40.0885 57.093 39.3876 56.3921 38.5229 56.3921C37.6584 56.3921 36.9573 57.093 36.9573 57.9577V66.2174C36.9573 68.0524 37.834 69.5429 39.5631 70.6476C40.4737 71.2294 41.5009 71.5251 42.6162 71.5266H42.6252C43.5854 71.5266 44.4873 71.3177 45.3054 70.9055C47.8873 69.6054 48.4293 67.6336 48.4293 66.2085Z" fill="#A58C6D"/>
<path d="M51.5181 57.9577C51.5181 58.8224 52.219 59.5233 53.0837 59.5233H54.8193V69.961C54.8193 70.8257 55.5203 71.5266 56.3849 71.5266C57.2496 71.5266 57.9506 70.8257 57.9506 69.961V59.5233H59.7127C60.5773 59.5233 61.2784 58.8224 61.2784 57.9577C61.2784 57.093 60.5774 56.3921 59.7127 56.3921H53.0838C52.2192 56.3921 51.5181 57.093 51.5181 57.9577Z" fill="#A58C6D"/>
<path d="M26.2891 71.5265C30.4616 71.5265 33.8565 68.1318 33.8565 63.9593C33.8565 59.7868 30.4618 56.3921 26.2891 56.3921C22.1165 56.3921 18.7219 59.7868 18.7219 63.9593C18.7219 68.1318 22.1165 71.5265 26.2891 71.5265ZM26.2891 59.5232C28.7352 59.5232 30.7252 61.5132 30.7252 63.9593C30.7252 66.4054 28.7351 68.3954 26.2891 68.3954C23.8432 68.3954 21.8532 66.4054 21.8532 63.9593C21.8532 61.5132 23.843 59.5232 26.2891 59.5232Z" fill="#A58C6D"/>
</g>
<defs>
<clipPath id="clip0_838_1947">
<rect width="80" height="80" fill="white"/>
</clipPath>
</defs>
</svg>
