<svg width="20" height="21" viewBox="0 0 20 21" fill="none" xmlns="http://www.w3.org/2000/svg">
<path fill-rule="evenodd" clip-rule="evenodd" d="M15.5892 4.91058C15.9147 5.23602 15.9147 5.76366 15.5892 6.08909L5.58921 16.0891C5.26378 16.4145 4.73614 16.4145 4.4107 16.0891C4.08527 15.7637 4.08527 15.236 4.4107 14.9106L14.4107 4.91058C14.7361 4.58514 15.2638 4.58514 15.5892 4.91058Z" fill="#A8A8A8"/>
<path fill-rule="evenodd" clip-rule="evenodd" d="M4.4107 4.91058C4.73614 4.58514 5.26378 4.58514 5.58921 4.91058L15.5892 14.9106C15.9147 15.236 15.9147 15.7637 15.5892 16.0891C15.2638 16.4145 14.7361 16.4145 14.4107 16.0891L4.4107 6.08909C4.08527 5.76366 4.08527 5.23602 4.4107 4.91058Z" fill="#A8A8A8"/>
</svg>
